<?xml version="1.0" ?><!DOCTYPE svg  PUBLIC '-//W3C//DTD SVG 1.1//EN'  'http://www.w3.org/Graphics/SVG/1.1/DTD/svg11.dtd'><svg enable-background="new 0 0 550 550" id="Layer_1" version="1.1" viewBox="0 0 550 550" xml:space="preserve" xmlns="http://www.w3.org/2000/svg" xmlns:xlink="http://www.w3.org/1999/xlink"><g><g><path d="M438.4,277.9c-1.4-1.6-2.4-1.5-4-0.1c-10.1,8.9-20.3,17.7-30.4,26.5c-12.6,11-25.3,22-37.9,33     c-10.9,9.5-21.7,19-32.6,28.4c-3.5,3-7.6,4.1-12.3,3c-3.4-0.8-5.7-2.9-8.1-5c-17.4-14.9-34.7-29.9-52.1-44.8     c-1.1-0.9-2.1-1.8-3.2-2.7c-9.1-7.8-18.1-15.7-27.2-23.4c-0.9-0.8-2.2-1.7-3.3-1.7c-3.3,0-6.7,0.4-10.3,0.7     c0.8,0.8,1.3,1.5,1.9,2.1c11.6,11.6,23.1,23.1,34.7,34.7c23.9,23.9,47.9,47.9,71.8,71.8c1.7,1.7,2.6,1.8,4.3,0.1     c6.8-7.1,13.7-14.1,20.6-21c14.6-14.8,29.2-29.5,43.8-44.3c16.1-16.3,32.2-32.6,48.4-48.9c0.3-0.3,0.8-0.6,0.9-0.9     c0.1-0.8,0.4-1.9,0-2.4C441.7,281,439.9,279.6,438.4,277.9z" fill="#f43f2a"/><path d="M288.7,207.6c0-33.7-21.9-62.2-52.1-72.2c-7.5-2.5-15.6-3.9-24-3.9c-42,0-76.1,34.1-76.1,76.1     c0,34.8,23.3,64.1,55.1,73.2c1.2,0.3,2.4,0.7,3.7,1c5.6,1.3,11.3,2,17.3,2C254.6,283.7,288.7,249.7,288.7,207.6z" fill="#f43f2a"/><path d="M438.4,277.9c-1.4-1.6-2.4-1.5-4-0.1c-10.1,8.9-20.3,17.7-30.4,26.5c-12.6,11-25.3,22-37.9,33     c-10.9,9.5-21.7,19-32.6,28.4c-3.5,3-7.6,4.1-12.3,3c-3.4-0.8-5.7-2.9-8.1-5c-17.4-14.9-34.7-29.9-52.1-44.8     c-1.1-0.9-2.1-1.8-3.2-2.7c-9.1-7.8-18.1-15.7-27.2-23.4c-0.9-0.8-2.2-1.7-3.3-1.7c-3.3,0-6.7,0.4-10.3,0.7     c0.8,0.8,1.3,1.5,1.9,2.1c11.6,11.6,23.1,23.1,34.7,34.7c23.9,23.9,47.9,47.9,71.8,71.8c1.7,1.7,2.6,1.8,4.3,0.1     c6.8-7.1,13.7-14.1,20.6-21c14.6-14.8,29.2-29.5,43.8-44.3c16.1-16.3,32.2-32.6,48.4-48.9c0.3-0.3,0.8-0.6,0.9-0.9     c0.1-0.8,0.4-1.9,0-2.4C441.7,281,439.9,279.6,438.4,277.9z" fill="#f43f2a"/><path d="M288.7,207.6c0-33.7-21.9-62.2-52.1-72.2c-7.5-2.5-15.6-3.9-24-3.9c-42,0-76.1,34.1-76.1,76.1     c0,34.8,23.3,64.1,55.1,73.2c1.2,0.3,2.4,0.7,3.7,1c5.6,1.3,11.3,2,17.3,2C254.6,283.7,288.7,249.7,288.7,207.6z" fill="#f43f2a"/><path d="M300,225.3c4.9,8.4,9.9,16.8,14.9,25.2c2.6,4.4,5.2,8.7,7.8,13.1c2,3.3,4,6.6,6.2,10.4     c16.5-18.1,32.7-35.9,49.1-54c-7.5-7.2-14.9-14.3-22.3-21.4c-9.6-9.2-19.2-18.4-28.8-27.6c-0.6,0.4-0.9,0.5-1,0.7     c-8.7,9.2-17.4,18.4-26,27.7c-0.6,0.6-0.8,1.9-0.8,2.8c-0.1,6.2-0.1,12.4,0,18.7C299.1,222.3,299.2,224.1,300,225.3z" fill="#f43f2a"/><path d="M443.2,282.7c-1.5-1.7-3.3-3.1-4.7-4.8c-1.4-1.6-2.4-1.5-4-0.1c-10.1,8.9-20.3,17.7-30.4,26.5     c-12.6,11-25.3,22-37.9,33c-10.9,9.5-21.7,19-32.6,28.4c-3.5,3-7.6,4.1-12.3,3c-3.4-0.8-5.7-2.9-8.1-5     c-17.4-14.9-34.7-29.9-52.1-44.8c-1.1-0.9-2.1-1.8-3.2-2.7c-9.1-7.8-18.1-15.7-27.2-23.4c-0.9-0.8-2.2-1.7-3.3-1.7     c-3.3,0-6.7,0.4-10.3,0.7c0.8,0.8,1.3,1.5,1.9,2.1c11.6,11.6,23.1,23.1,34.7,34.7c23.9,23.9,47.9,47.9,71.8,71.8     c1.7,1.7,2.6,1.8,4.3,0.1c6.8-7.1,13.7-14.1,20.6-21c14.6-14.8,29.2-29.5,43.8-44.3c16.1-16.3,32.2-32.6,48.4-48.9     c0.3-0.3,0.8-0.6,0.9-0.9C443.3,284.3,443.6,283.2,443.2,282.7z" fill="#f43f2a"/><path d="M355.7,198.6c-9.6-9.2-19.2-18.4-28.8-27.6c-0.6,0.4-0.9,0.5-1,0.7c-8.7,9.2-17.4,18.4-26,27.7     c-0.6,0.6-0.8,1.9-0.8,2.8c-0.1,6.2-0.1,12.4,0,18.7c0,1.5,0.1,3.2,0.9,4.4c4.9,8.4,9.9,16.8,14.9,25.2c2.6,4.4,5.2,8.7,7.8,13.1     c2,3.3,4,6.6,6.2,10.4c16.5-18.1,32.7-35.9,49.1-54C370.6,212.8,363.1,205.7,355.7,198.6z" fill="#f43f2a"/><path d="M288.7,207.6c0-33.7-21.9-62.2-52.1-72.2c0,0,62.8,99.9-41.3,146.4c5.6,1.3,11.3,2,17.3,2     C254.6,283.7,288.7,249.7,288.7,207.6z" fill="#333"/><path d="M236.5,135.4c-7.5-2.5-15.6-3.9-24-3.9c-42,0-76.1,34.1-76.1,76.1c0,34.8,23.3,64.1,55.1,73.2     c1.2,0.3,2.4,0.7,3.7,1C299.3,235.3,236.5,135.4,236.5,135.4z M207.8,201.1c0,3.5-2.8,6.3-6.3,6.3c-3.5,0-6.3-2.8-6.3-6.3     c0-3.5,2.8-6.3,6.3-6.3C205,194.9,207.8,197.7,207.8,201.1z M195.9,140.6c3.5,0,6.3,2.8,6.3,6.3c0,3.5-2.8,6.3-6.3,6.3     c-3.5,0-6.3-2.8-6.3-6.3C189.6,143.5,192.4,140.6,195.9,140.6z M172.9,160.5c3.5,0,6.3,2.8,6.3,6.3c0,3.5-2.8,6.3-6.3,6.3     c-3.5,0-6.3-2.8-6.3-6.3C166.7,163.3,169.5,160.5,172.9,160.5z M157.7,222.1c-3.5,0-6.3-2.8-6.3-6.3c0-3.5,2.8-6.3,6.3-6.3     c3.5,0,6.3,2.8,6.3,6.3C164,219.3,161.2,222.1,157.7,222.1z M157.7,194.9c-3.5,0-6.3-2.8-6.3-6.3c0-3.5,2.8-6.3,6.3-6.3     c3.5,0,6.3,2.8,6.3,6.3C164,192.1,161.2,194.9,157.7,194.9z M172.9,260.1c-3.5,0-6.3-2.8-6.3-6.3c0-3.5,2.8-6.3,6.3-6.3     c3.5,0,6.3,2.8,6.3,6.3C179.2,257.3,176.4,260.1,172.9,260.1z M179.2,231.1c-3.5,0-6.3-2.8-6.3-6.3s2.8-6.3,6.3-6.3     c3.5,0,6.3,2.8,6.3,6.3S182.6,231.1,179.2,231.1z M179.2,201.1c-3.5,0-6.3-2.8-6.3-6.3c0-3.5,2.8-6.3,6.3-6.3     c3.5,0,6.3,2.8,6.3,6.3C185.4,198.3,182.6,201.1,179.2,201.1z M189,171c0-3.5,2.8-6.3,6.3-6.3c3.5,0,6.3,2.8,6.3,6.3     c0,3.5-2.8,6.3-6.3,6.3C191.8,177.2,189,174.4,189,171z M201.5,260.1c-3.5,0-6.3-2.8-6.3-6.3c0-3.5,2.8-6.3,6.3-6.3     c3.5,0,6.3,2.8,6.3,6.3C207.8,257.3,205,260.1,201.5,260.1z M207.8,234.6c-3.5,0-6.3-2.8-6.3-6.3c0-3.5,2.8-6.3,6.3-6.3     c3.5,0,6.3,2.8,6.3,6.3C214,231.8,211.2,234.6,207.8,234.6z M216.9,194.9c-3.5,0-6.3-2.8-6.3-6.3c0-3.5,2.8-6.3,6.3-6.3     c3.5,0,6.3,2.8,6.3,6.3C223.1,192.1,220.3,194.9,216.9,194.9z" fill="#333333"/><circle cx="172.9" cy="166.7" fill="#333333" r="6.3"/><circle cx="195.2" cy="171" fill="#333333" r="6.3"/><circle cx="157.7" cy="188.6" fill="#333333" r="6.3"/><circle cx="179.2" cy="194.9" fill="#333333" r="6.3"/><circle cx="201.5" cy="201.1" fill="#333333" r="6.3"/><circle cx="157.7" cy="215.8" fill="#333333" r="6.3"/><circle cx="179.2" cy="224.9" fill="#333333" r="6.3"/><circle cx="207.8" cy="228.3" fill="#333333" r="6.3"/><circle cx="216.9" cy="188.6" fill="#333333" r="6.3"/><circle cx="172.9" cy="253.9" fill="#333333" r="6.3"/><circle cx="201.5" cy="253.9" fill="#333333" r="6.3"/><circle cx="195.9" cy="146.9" fill="#333333" r="6.3"/><path d="M300,225.3c4.9,8.4,9.9,16.8,14.9,25.2c2.6,4.4,5.2,8.7,7.8,13.1c2,3.3,4,6.6,6.2,10.4     c16.5-18.1,32.7-35.9,49.1-54c-7.5-7.2-14.9-14.3-22.3-21.4c-9.6-9.2-19.2-18.4-28.8-27.6c-0.6,0.4-0.9,0.5-1,0.7     c-8.7,9.2-17.4,18.4-26,27.7c-0.6,0.6-0.8,1.9-0.8,2.8c-0.1,6.2-0.1,12.4,0,18.7C299.1,222.3,299.2,224.1,300,225.3z" fill="#f43f2a"/><path d="M521.2,204.5L505.5,216c-3.4,2.9-6.9,5.8-10.3,8.7c-15.6,13.5-31.2,27.1-46.8,40.6     c-0.9,0.8-1.7,1.6-2.7,2.6c2,1.9,3.8,3.6,5.6,5.4c6.9,6.6,7,14.2,0.4,20.9c-34.1,34.6-68.2,69.1-102.3,103.7     c-3.9,4-7.8,8-11.7,11.9c-6.3,6.4-14.1,6.5-20.4,0.2c-23.9-23.9-47.7-47.8-71.6-71.7c-10.6-10.7-21.3-21.3-31.9-32     c-2.1-2.1-4.2-3-7.2-3.3c-44-4.5-75.3-34.7-84-71.3c-8.3-35.1,6.6-74.6,38.3-95.6c13.2-8.7,27.6-14,43.1-15.7     c33.3-3.6,61.8,6.6,84.6,31.4c6,6.5,10.7,13.9,14.4,21.9c0.4,0.8,0.7,1.5,2.2,3.1c0.4-0.9,0.7-1.9,1.3-2.6     c3.2-3.6,6.5-7,9.7-10.5c6.1-6.5,13.7-6.7,20.1-0.6c9,8.6,17.9,17.2,26.9,25.8c6.8,6.5,13.5,13,20.3,19.5c0.9,0.8,1.7,1.6,3.2,3     c0.5-0.8,0.7-1.5,1.2-2c28.8-31.7,57.6-63.3,86.4-95c-8.7-10.8-18.3-20.9-28.6-30.2C400.5,43.7,340.6,19,275,19     C133.6,19,19,133.6,19,275s114.6,256,256,256s256-114.6,256-256C531,250.5,527.6,226.9,521.2,204.5z" fill="#f43f2a"/><path d="M353.7,265c-9,9.9-17.9,19.7-26.9,29.6c-5.4-9.1-10.8-18.2-16.2-27.3c-1.3-2.2-2.6-4.3-3.9-6.5     c-4.2-7-8.3-14-12.7-21.4c-4.8,11.7-11.5,21.3-20.4,29.5c-8.8,8.1-19,13.9-30.8,18c8.6,7.4,17.2,14.9,25.8,22.2     c18.6,16,37.1,32,55.7,48c0.9-0.7,1.7-1.3,2.4-1.9c26.8-23.3,53.6-46.6,80.4-69.9c28.7-25,57.4-49.9,86.1-74.9     c4.1-3.6,8.2-7.1,12.4-10.6l11.6-8c-8.4-24.4-20.4-47.2-35.3-67.6c-13.4,14.8-26.9,29.5-40.3,44.3     C412.3,200.7,383,232.9,353.7,265z" fill="#333333"/><path d="M505.5,199.9c-4.1,3.5-8.3,7-12.4,10.6c-28.7,24.9-57.4,49.9-86.1,74.9c-26.8,23.3-53.6,46.6-80.4,69.9     c-0.7,0.6-1.5,1.2-2.4,1.9c-18.5-16-37-31.9-55.7-48c-8.6-7.4-17.2-14.8-25.8-22.2c11.9-4.1,22-9.9,30.8-18     c8.8-8.1,15.5-17.7,20.4-29.5c4.4,7.3,8.5,14.4,12.7,21.4c1.3,2.2,2.6,4.4,3.9,6.5c5.4,9.1,10.8,18.2,16.2,27.3     c9-9.9,17.9-19.8,26.9-29.6c29.3-32.2,58.6-64.4,87.8-96.5c13.4-14.8,26.9-29.5,40.3-44.3c-2.4-3.3-4.9-6.6-7.5-9.7     c-28.8,31.7-57.6,63.3-86.4,95c-0.5,0.5-0.7,1.2-1.2,2c-1.4-1.3-2.3-2.1-3.2-3c-6.8-6.5-13.5-13-20.3-19.5     c-9-8.6-17.9-17.2-26.9-25.8c-6.4-6.1-14-5.9-20.1,0.6c-3.3,3.5-6.5,7-9.7,10.5c-0.6,0.7-0.9,1.7-1.3,2.6     c-1.4-1.6-1.8-2.3-2.2-3.1c-3.7-8-8.5-15.4-14.4-21.9c-22.9-24.8-51.3-35-84.6-31.4c-15.5,1.7-29.9,7-43.1,15.7     c-31.7,21-46.7,60.6-38.3,95.6c8.7,36.6,39.9,66.8,84,71.3c3,0.3,5.1,1.2,7.2,3.3c10.6,10.7,21.3,21.3,31.9,32     c23.9,23.9,47.7,47.8,71.6,71.7c6.3,6.3,14.1,6.2,20.4-0.2c3.9-4,7.8-8,11.7-11.9c34.1-34.6,68.2-69.1,102.3-103.7     c6.6-6.7,6.5-14.4-0.4-20.9c-1.8-1.7-3.6-3.5-5.6-5.4c1-1,1.8-1.8,2.7-2.6c15.6-13.6,31.2-27.1,46.8-40.6     c3.4-2.9,6.8-5.8,10.3-8.7l15.6-11.5c-1.2-4.3-2.6-8.5-4-12.7L505.5,199.9z M299.1,202.2c0-1,0.2-2.2,0.8-2.8     c8.6-9.3,17.3-18.5,26-27.7c0.2-0.2,0.4-0.3,1-0.7c9.6,9.2,19.2,18.4,28.8,27.6c7.4,7.1,14.8,14.2,22.3,21.4     c-16.4,18.1-32.6,35.9-49.1,54c-2.2-3.7-4.3-7.1-6.2-10.4c-2.6-4.4-5.2-8.7-7.8-13.1c-5-8.4-10-16.8-14.9-25.2     c-0.7-1.2-0.8-2.9-0.9-4.4C299,214.6,299,208.4,299.1,202.2z M212.5,283.7c-6,0-11.7-0.7-17.3-2c-1.2-0.3-2.5-0.6-3.7-1     c-31.8-9.1-55.1-38.4-55.1-73.2c0-42,34.1-76.1,76.1-76.1c8.4,0,16.4,1.4,24,3.9c30.3,10,52.1,38.6,52.1,72.2     C288.7,249.7,254.6,283.7,212.5,283.7z M443.2,285.1c-0.1,0.4-0.6,0.6-0.9,0.9c-16.1,16.3-32.2,32.6-48.4,48.9     c-14.6,14.8-29.2,29.5-43.8,44.3c-6.9,7-13.8,13.9-20.6,21c-1.7,1.8-2.7,1.6-4.3-0.1c-23.9-24-47.9-47.9-71.8-71.8     c-11.6-11.6-23.1-23.1-34.7-34.7c-0.6-0.6-1.1-1.2-1.9-2.1c3.7-0.3,7-0.7,10.3-0.7c1.1,0,2.4,0.9,3.3,1.7     c9.1,7.8,18.2,15.6,27.2,23.4c1.1,0.9,2.1,1.8,3.2,2.7c17.4,14.9,34.7,29.9,52.1,44.8c2.4,2.1,4.7,4.2,8.1,5     c4.7,1.1,8.8,0,12.3-3c10.9-9.4,21.8-18.9,32.6-28.4c12.6-11,25.3-22,37.9-33c10.1-8.8,20.3-17.6,30.4-26.5     c1.6-1.4,2.6-1.5,4,0.1c1.5,1.7,3.3,3.1,4.7,4.8C443.6,283.2,443.3,284.3,443.2,285.1z" fill="#333333"/></g></g></svg>