<svg xmlns="http://www.w3.org/2000/svg" width="14" height="15" viewBox="0 0 14 15">
  <metadata><?xpacket begin="﻿" id="W5M0MpCehiHzreSzNTczkc9d"?>
<x:xmpmeta xmlns:x="adobe:ns:meta/" x:xmptk="Adobe XMP Core 5.6-c142 79.160924, 2017/07/13-01:06:39        ">
   <rdf:RDF xmlns:rdf="http://www.w3.org/1999/02/22-rdf-syntax-ns#">
      <rdf:Description rdf:about=""/>
   </rdf:RDF>
</x:xmpmeta>
                                                                                                    
                                                                                                    
                                                                                                    
                                                                                                    
                                                                                                    
                                                                                                    
                                                                                                    
                                                                                                    
                                                                                                    
                                                                                                    
                                                                                                    
                                                                                                    
                                                                                                    
                                                                                                    
                                                                                                    
                                                                                                    
                                                                                                    
                                                                                                    
                                                                                                    
                                                                                                    
                           
<?xpacket end="w"?></metadata>
<defs>
    <style>
      .cls-1 {
        fill-rule: evenodd;
      }
    </style>
  </defs>
  <path id="Broj_telefona" data-name="Broj telefona" class="cls-1" d="M13.581,10.868L11.473,8.759a1.1,1.1,0,0,0-1.55.029L8.861,9.851l-0.21-.117A10.572,10.572,0,0,1,6.1,7.886a10.624,10.624,0,0,1-1.852-2.56c-0.039-.071-0.077-0.14-0.114-0.2L4.843,4.41l0.35-.351a1.1,1.1,0,0,0,.028-1.55L3.114,0.4a1.1,1.1,0,0,0-1.55.029l-0.594.6L0.986,1.043a3.434,3.434,0,0,0-.49.864,3.582,3.582,0,0,0-.218.876C0,5.091,1.055,7.2,3.917,10.062c3.956,3.956,7.145,3.657,7.282,3.643a3.564,3.564,0,0,0,.879-0.221A3.417,3.417,0,0,0,12.938,13l0.013,0.011,0.6-.589A1.1,1.1,0,0,0,13.581,10.868Z"/>
</svg>
